HIERARCHY
ROOT joint_Root
{
	OFFSET 0.0 0.0 0.0
	CHANNELS 6 Xposition Yposition Zposition Zrotation Xrotation Yrotation 
	JOINT Hips
	{
		OFFSET -17.1583 93.1646 452.98
		CHANNELS 6 Xposition Yposition Zposition Zrotation Xrotation Yrotation 
		JOINT Spine
		{
			OFFSET 15.7357 0.0 0.0
			CHANNELS 6 Xposition Yposition Zposition Zrotation Xrotation Yrotation 
			JOINT Chest
			{
				OFFSET 8.98455 -0.406207 0.0
				CHANNELS 6 Xposition Yposition Zposition Zrotation Xrotation Yrotation 
				JOINT Neck
				{
					OFFSET 16.3773 0.0 0.0
					CHANNELS 6 Xposition Yposition Zposition Zrotation Xrotation Yrotation 
					JOINT Head
					{
						OFFSET 6.45672 0.0 0.0
						CHANNELS 6 Xposition Yposition Zposition Zrotation Xrotation Yrotation 
						End Site
						{
							OFFSET 0.0 0.0 0.0
						}
					}
				}
				JOINT Shoulder_L
				{
					OFFSET 12.9942 -0.242716 4.98039
					CHANNELS 6 Xposition Yposition Zposition Zrotation Xrotation Yrotation 
					JOINT UpperArm_L
					{
						OFFSET 5.34809 0.0 0.0
						CHANNELS 6 Xposition Yposition Zposition Zrotation Xrotation Yrotation 
						JOINT LowerArm_L
						{
							OFFSET 24.3286 1.87007e-05 0.0
							CHANNELS 6 Xposition Yposition Zposition Zrotation Xrotation Yrotation 
							JOINT Hand_L
							{
								OFFSET 22.2916 0.0 0.0
								CHANNELS 6 Xposition Yposition Zposition Zrotation Xrotation Yrotation 
								End Site
								{
									OFFSET 0.0 0.0 0.0
								}
							}
						}
					}
				}
				JOINT Shoulder_R
				{
					OFFSET 12.9945 -0.242716 -4.98039
					CHANNELS 6 Xposition Yposition Zposition Zrotation Xrotation Yrotation 
					JOINT UpperArm_R
					{
						OFFSET -5.34813 0.0 0.0
						CHANNELS 6 Xposition Yposition Zposition Zrotation Xrotation Yrotation 
						JOINT LowerArm_R
						{
							OFFSET -24.3289 0.000322201 0.0
							CHANNELS 6 Xposition Yposition Zposition Zrotation Xrotation Yrotation 
							JOINT Hand_R
							{
								OFFSET -22.2915 -0.000108084 0.0
								CHANNELS 6 Xposition Yposition Zposition Zrotation Xrotation Yrotation 
								End Site
								{
									OFFSET 0.0 0.0 0.0
								}
							}
						}
					}
				}
			}
		}
		JOINT UpperLeg_L
		{
			OFFSET -2.19248 -6.46944 0.0
			CHANNELS 6 Xposition Yposition Zposition Zrotation Xrotation Yrotation 
			JOINT LowerLeg_L
			{
				OFFSET 39.0811 0.0 -1.23785e-05
				CHANNELS 6 Xposition Yposition Zposition Zrotation Xrotation Yrotation 
				JOINT Foot_L
				{
					OFFSET 40.9854 0.0 -1.26872e-05
					CHANNELS 6 Xposition Yposition Zposition Zrotation Xrotation Yrotation 
					JOINT Toes_L
					{
						OFFSET 11.7543 0.0 0.0
						CHANNELS 6 Xposition Yposition Zposition Zrotation Xrotation Yrotation 
						End Site
						{
							OFFSET 0.0 0.0 0.0
						}
					}
				}
			}
		}
		JOINT UpperLeg_R
		{
			OFFSET -2.19251 6.46944 0.0
			CHANNELS 6 Xposition Yposition Zposition Zrotation Xrotation Yrotation 
			JOINT LowerLeg_R
			{
				OFFSET -39.0811 -0.00228153 -0.0401928
				CHANNELS 6 Xposition Yposition Zposition Zrotation Xrotation Yrotation 
				JOINT Foot_R
				{
					OFFSET -40.9854 0.0 0.0
					CHANNELS 6 Xposition Yposition Zposition Zrotation Xrotation Yrotation 
					JOINT Toes_R
					{
						OFFSET -11.7543 0.0 0.0
						CHANNELS 6 Xposition Yposition Zposition Zrotation Xrotation Yrotation 
						End Site
						{
							OFFSET 0.0 0.0 0.0
						}
					}
				}
			}
		}
	}
}
MOTION
Frames:	4
Frame Time:	0.0333333
0.000000 0.000000 0.000000 0.000000 0.000000 -0.000000 -2.481530 92.719200 2.133670 88.467600 4.851420 3.169200 15.735700 0.000005 -0.000001 58.761500 86.842800 -55.755900 8.984550 -0.406207 -0.000000 -2.268950 -3.536660 5.942100 16.377300 -0.000001 -0.000001 5.417810 2.782890 -3.027190 6.456720 -0.000001 -0.000000 5.938680 4.086660 -7.821930 12.994200 -0.242716 4.980390 -92.657800 8.604540 -72.762400 5.348090 -0.000007 -0.000001 -76.033600 22.197900 3.021290 24.328600 0.000019 0.000005 11.454400 26.556800 -24.380500 22.291600 -0.000001 0.000005 -3.365060 5.037650 6.508040 12.994500 -0.242716 -4.980390 89.182900 2.780920 -73.619500 -5.348130 -0.000001 -0.000004 -67.108400 27.412600 -6.421520 -24.328900 0.000322 -0.000009 0.094378 0.386041 -13.883500 -22.291500 -0.000108 -0.000004 -9.408880 5.141850 4.137550 -2.192480 -6.469440 -0.000000 -171.587000 -4.374710 2.037860 39.081100 -0.000007 -0.000012 0.009274 -0.034304 15.129400 40.985400 -0.000006 -0.000013 -1.627660 17.825100 -69.267000 11.754300 -0.000000 0.000003 -0.001684 0.192321 -8.774550 -2.192510 6.469440 -0.000001 178.515000 9.141480 -175.937000 -39.081100 -0.002282 -0.040193 0.057382 -0.211930 14.307700 -40.985400 0.000008 0.000006 -2.518970 2.944390 -70.919600 -11.754300 -0.000006 -0.000006 -0.010915 0.278020 -5.276270
0.000000 0.000000 0.000000 0.000000 0.000000 -0.000000 -2.265840 92.720500 2.283900 88.479000 4.881380 3.216800 15.735700 0.000005 -0.000001 57.860900 86.758500 -54.946000 8.984550 -0.406207 -0.000000 -2.177380 -3.700550 5.760550 16.377300 -0.000001 -0.000001 5.431200 2.936410 -3.496680 6.456720 -0.000001 -0.000000 5.692670 4.210910 -8.358950 12.994200 -0.242716 4.980390 -92.686300 8.645670 -72.665600 5.348090 -0.000007 -0.000001 -75.773200 21.685200 3.089010 24.328600 0.000019 0.000005 11.538100 26.444000 -24.627600 22.291600 -0.000001 0.000005 -3.448850 5.036980 6.522910 12.994500 -0.242716 -4.980390 89.049900 3.153460 -73.224600 -5.348130 -0.000001 -0.000004 -66.081000 24.947600 -6.722300 -24.328900 0.000322 -0.000009 0.255111 1.008690 -14.249800 -22.291500 -0.000108 -0.000004 -9.332070 5.161470 3.667340 -2.192480 -6.469440 -0.000000 -171.717000 -4.486700 2.192120 39.081100 -0.000007 -0.000012 0.009731 -0.035928 15.156000 40.985400 -0.000006 -0.000013 -1.439890 17.880400 -69.460000 11.754300 -0.000000 0.000003 -0.002063 0.197130 -8.578950 -2.192510 6.469440 -0.000001 178.245000 9.243220 -175.652000 -39.081100 -0.002282 -0.040193 0.047231 -0.174841 14.094500 -40.985400 0.000008 0.000006 -3.138270 3.163950 -70.780500 -11.754300 -0.000006 -0.000006 -0.011248 0.280406 -5.178570
0.000000 0.000000 0.000000 0.000000 0.000000 -0.000000 -2.049680 92.704000 2.396600 88.417900 4.904100 3.141610 15.735700 0.000005 -0.000001 56.298900 86.690000 -53.464600 8.984550 -0.406207 -0.000000 -2.157120 -3.917460 5.596100 16.377300 -0.000001 -0.000001 5.410140 3.088080 -4.004510 6.456720 -0.000001 -0.000000 5.368340 4.287390 -9.311370 12.994200 -0.242716 4.980390 -92.744700 8.813860 -72.626300 5.348090 -0.000007 -0.000001 -75.298800 20.944000 3.298500 24.328600 0.000019 0.000005 11.529200 26.001700 -24.952100 22.291600 -0.000001 0.000005 -3.671160 5.041450 6.425120 12.994500 -0.242716 -4.980390 88.944300 3.393220 -72.707300 -5.348130 -0.000001 -0.000004 -64.907000 21.322000 -7.197610 -24.328900 0.000322 -0.000009 0.163199 0.631936 -14.569600 -22.291500 -0.000108 -0.000004 -9.636120 5.178000 3.264860 -2.192480 -6.469440 -0.000000 -171.856000 -4.155400 2.036810 39.081100 -0.000007 -0.000012 0.011374 -0.041169 15.445100 40.985400 -0.000006 -0.000013 -1.267160 17.556600 -69.633900 11.754300 -0.000000 0.000003 -0.001955 0.195779 -8.633910 -2.192510 6.469440 -0.000001 178.092000 9.455380 -175.583000 -39.081100 -0.002282 -0.040193 0.041929 -0.155113 13.973300 -40.985400 0.000008 0.000006 -3.463930 3.440590 -70.634500 -11.754300 -0.000006 -0.000006 -0.010945 0.278236 -5.267410
0.000000 0.000000 0.000000 0.000000 0.000000 -0.000000 -1.807070 92.710300 2.510500 88.322000 4.659820 2.973850 15.735700 0.000005 -0.000001 55.660500 86.689200 -52.941500 8.984550 -0.406207 -0.000000 -2.200440 -3.970470 5.363040 16.377300 -0.000001 -0.000001 5.238060 3.195270 -4.477510 6.456720 -0.000001 -0.000000 5.102330 4.359980 -10.631200 12.994200 -0.242716 4.980390 -92.782400 8.889460 -72.541300 5.348090 -0.000007 -0.000001 -74.737900 20.444300 3.497430 24.328600 0.000019 0.000005 11.610000 25.791900 -25.276200 22.291600 -0.000001 0.000005 -3.671820 5.038600 6.487320 12.994500 -0.242716 -4.980390 88.870800 3.492660 -72.070600 -5.348130 -0.000001 -0.000004 -63.508300 16.423200 -7.828300 -24.328900 0.000322 -0.000009 -0.061117 -0.229107 -14.697900 -22.291500 -0.000108 -0.000004 -10.650900 5.186200 3.062870 -2.192480 -6.469440 -0.000000 -171.940000 -4.309150 1.967360 39.081100 -0.000007 -0.000012 0.012302 -0.044250 15.536600 40.985400 -0.000006 -0.000013 -1.073940 17.394300 -69.823700 11.754300 -0.000000 0.000003 -0.001804 0.193859 -8.711980 -2.192510 6.469440 -0.000001 177.924000 9.450860 -175.541000 -39.081100 -0.002282 -0.040193 0.031016 -0.113841 13.667500 -40.985400 0.000008 0.000006 -4.209880 3.879190 -70.320600 -11.754300 -0.000006 -0.000006 -0.010662 0.276187 -5.351250
